<svg xmlns="http://www.w3.org/2000/svg" viewBox="0 0 100 100">
  <circle cx="50" cy="50" r="48" fill="#b5232a"/>
  <circle cx="50" cy="50" r="44" fill="none" stroke="#ffd87a" stroke-width="2.5" opacity="0.5"/>
  <path d="M50 50 C46 37 46 26 50 22 C54 26 54 37 50 50Z" fill="#ffe6ac"/>
  <path d="M50 50 C46 37 46 26 50 22 C54 26 54 37 50 50Z" fill="#ffe6ac" transform="rotate(72 50 50)"/>
  <path d="M50 50 C46 37 46 26 50 22 C54 26 54 37 50 50Z" fill="#ffe6ac" transform="rotate(144 50 50)"/>
  <path d="M50 50 C46 37 46 26 50 22 C54 26 54 37 50 50Z" fill="#ffe6ac" transform="rotate(216 50 50)"/>
  <path d="M50 50 C46 37 46 26 50 22 C54 26 54 37 50 50Z" fill="#ffe6ac" transform="rotate(288 50 50)"/>
  <circle cx="50" cy="50" r="11" fill="#ffd87a"/>
  <circle cx="50" cy="42" r="2.5" fill="#b5232a"/>
  <circle cx="57" cy="46" r="2.5" fill="#b5232a"/>
  <circle cx="57" cy="54" r="2.5" fill="#b5232a"/>
  <circle cx="50" cy="58" r="2.5" fill="#b5232a"/>
  <circle cx="43" cy="54" r="2.5" fill="#b5232a"/>
  <circle cx="43" cy="46" r="2.5" fill="#b5232a"/>
</svg>
